<!-- by TradingView --><svg width="18" height="18" viewBox="0 0 18 18" xmlns="http://www.w3.org/2000/svg"><path fill="url(#a)" d="M0 0h18v18H0z"/><path d="m13.34 6.52-.21-.38a.22.22 0 0 0-.27-.1.22.22 0 0 0-.08.05l-.5.5a.22.22 0 0 0-.03.28 3.87 3.87 0 0 1-1.48 5.59 3.89 3.89 0 0 1-3.6-.02l.85-.84a2.78 2.78 0 0 0 3.48-3.81.22.22 0 0 0-.36-.06l-.5.5a.22.22 0 0 0-.06.21l.04.18a1.67 1.67 0 0 1-2.44 1.83l-.22-.13a.22.22 0 0 0-.27.04L5.64 12.4a.22.22 0 0 0 .02.34l.3.23a5 5 0 0 0 7.38-6.45Z" fill="url(#b)"/><path d="M12.04 5.03a5 5 0 0 0-7.38 6.45l.21.38a.22.22 0 0 0 .36.05l.5-.5a.22.22 0 0 0 .02-.28 3.89 3.89 0 0 1 5.07-5.57l-.84.84a2.78 2.78 0 0 0-3.48 3.81.22.22 0 0 0 .36.06l.5-.5a.22.22 0 0 0 .06-.21l-.04-.18a1.69 1.69 0 0 1 .18-1.21 1.67 1.67 0 0 1 2.26-.62l.23.13a.22.22 0 0 0 .26-.03l2.05-2.05a.22.22 0 0 0-.02-.34l-.3-.23Z" fill="url(#c)"/><defs><linearGradient id="a" x1="3.35" y1="3.12" x2="21.9" y2="24.43" gradientUnits="userSpaceOnUse"><stop stop-color="#1A1E21"/><stop offset="1" stop-color="#06060A"/></linearGradient><linearGradient id="b" x1="7.24" y1="14.32" x2="14.28" y2="7.28" gradientUnits="userSpaceOnUse"><stop stop-color="#B090F5"/><stop offset="1" stop-color="#5FBFFF"/></linearGradient><linearGradient id="c" x1="4" y1="7.99" x2="12.43" y2="7.99" gradientUnits="userSpaceOnUse"><stop stop-color="#68D7FA"/><stop offset="1" stop-color="#7EF1B3"/></linearGradient></defs></svg>