<svg width="15" height="16" viewBox="0 0 15 16" fill="none" xmlns="http://www.w3.org/2000/svg">
<g clip-path="url(#clip0_2264_70165)">
<path d="M14.6258 8.10757C14.6388 9.35024 14.3948 10.5374 13.9158 11.6713C13.2318 13.2862 11.5928 14.6068 10.0958 13.2009C8.87481 12.0553 8.64881 9.72891 6.81981 9.38864C4.39981 9.07611 4.34181 12.0692 2.75981 12.4073C0.997813 12.7892 0.412813 9.62757 0.438813 8.19184C0.464813 6.75611 0.822813 4.73797 2.35381 4.73797C4.11581 4.73797 4.23481 7.58384 6.47181 7.43024C8.68681 7.26917 8.72581 4.30811 10.1728 3.03984C11.4218 1.94437 12.8908 2.74757 13.6258 4.06597C14.3078 5.28517 14.6068 6.71664 14.6228 8.10651H14.6248L14.6258 8.10757Z" fill="#97FCE4"/>
</g>
<defs>
<clipPath id="clip0_2264_70165">
<rect width="15" height="16" fill="white"/>
</clipPath>
</defs>
</svg>
