<svg width="34" height="16" viewBox="0 0 34 16" fill="none" xmlns="http://www.w3.org/2000/svg">
<path d="M32.0318 15.0528C32.5062 15.0528 32.8724 14.9239 33.1302 14.6661C33.3777 14.4083 33.5015 14.0422 33.5015 13.5678L33.5014 2.43231C33.5014 1.95792 33.3776 1.59181 33.1301 1.334C32.8723 1.07618 32.5061 0.947266 32.0317 0.947266H30.6804V2.09198H32.2793V8.23296V8.64318V9.01715L32.2793 13.8926H30.6804V15.0528H32.0318Z" fill="#F9BD29"/>
<path d="M1.46965 15.0528C0.995239 15.0528 0.629115 14.9239 0.371281 14.6661C0.12376 14.4083 0 14.0422 0 13.5678L8.2018e-05 2.43231C8.2018e-05 1.95792 0.123842 1.59181 0.371363 1.334C0.629197 1.07618 0.995321 0.947266 1.46973 0.947266H2.82111V2.09198H1.22221V8.23296V8.64318V9.01715L1.22213 13.8926H2.82102V15.0528H1.46965Z" fill="#F9BD29"/>
<path d="M7.366 7.77331C7.41857 7.82588 7.45307 7.89521 7.45307 7.9997C7.45307 8.10419 7.41857 8.17352 7.366 8.22608C7.31344 8.27865 7.25571 8.31896 7.17444 8.33057C7.09318 8.34218 7.00611 8.34798 6.91323 8.34798H6.73909H6.73786C6.69164 8.34798 6.6346 8.34798 6.58236 8.3654C6.52965 8.38297 6.50109 8.41764 6.47787 8.45247L4.07471 11.6567V12.7015H5.25888L7.59239 9.35801C7.65043 9.27675 7.67946 9.19548 7.67946 9.11421C7.67946 9.03295 7.6737 8.92284 7.64463 8.80076C7.61556 8.67867 7.59239 8.56856 7.59239 8.43506C7.59239 8.30155 7.60941 8.19737 7.66204 8.15643C7.71468 8.11549 7.93944 8.09004 7.98198 8.08677C8.02451 8.0835 8.06027 8.07996 8.11481 8.07996C8.16936 8.07996 8.21228 8.08355 8.25413 8.08677C8.29598 8.08999 8.51495 8.11549 8.56758 8.15643C8.62022 8.19737 8.63724 8.30155 8.63724 8.43506C8.63724 8.56856 8.61407 8.67867 8.585 8.80076C8.55593 8.92284 8.55017 9.03295 8.55017 9.11421C8.55017 9.19548 8.57919 9.27675 8.63724 9.35801L10.9708 12.7015H12.1549V11.6567L9.75175 8.45247C9.72853 8.41764 9.69997 8.38297 9.64727 8.3654C9.59503 8.34798 9.53799 8.34798 9.49177 8.34798H9.49054H9.3164C9.22352 8.34798 9.13645 8.34218 9.05518 8.33057C8.97392 8.31896 8.91006 8.28413 8.86363 8.22608C8.80558 8.17965 8.77656 8.10419 8.77656 7.9997C8.77656 7.89521 8.80558 7.81975 8.86363 7.77331C8.91006 7.71527 8.97392 7.68044 9.05518 7.66883C9.13645 7.65722 9.22352 7.65141 9.3164 7.65141H9.49054H9.49177C9.53799 7.65142 9.59503 7.65142 9.64727 7.634C9.69997 7.61643 9.72853 7.58176 9.75175 7.54693L12.1549 4.34271V3.29785H10.9708L8.63724 6.64139C8.57919 6.72265 8.55017 6.80392 8.55017 6.88519C8.55017 6.96645 8.55593 7.07656 8.585 7.19864C8.61407 7.32073 8.63724 7.43664 8.63724 7.56434C8.63724 7.70366 8.62022 7.80203 8.56758 7.84297C8.51495 7.88391 8.29598 7.90941 8.25413 7.91263C8.21228 7.91585 8.16936 7.91944 8.11481 7.91944C8.06027 7.91944 8.02451 7.9159 7.98198 7.91263C7.93944 7.90936 7.71468 7.88391 7.66204 7.84297C7.60941 7.80203 7.59239 7.70366 7.59239 7.56434C7.59239 7.43664 7.61556 7.32073 7.64463 7.19864C7.6737 7.07656 7.67946 6.96645 7.67946 6.88519C7.67946 6.80392 7.65043 6.72265 7.59239 6.64139L5.25888 3.29785H4.07471V4.34271L6.47787 7.54693C6.50109 7.58176 6.52965 7.61643 6.58236 7.634C6.6346 7.65142 6.69164 7.65142 6.73786 7.65141H6.73909H6.91323C6.98869 7.65141 7.09318 7.65722 7.17444 7.66883C7.25571 7.68044 7.31344 7.72075 7.366 7.77331Z" fill="#F9BD29"/>
<path d="M17.9782 7.77332C17.9256 7.82588 17.8911 7.89522 17.8911 7.9997V12.7016H16.3795V7.9997C16.3795 7.89522 16.345 7.82588 16.2925 7.77332C16.2399 7.72075 16.1753 7.68624 16.1009 7.66883C16.0266 7.65142 16.0092 7.65142 15.9337 7.65142H15.7596H15.7584C15.7121 7.65142 15.6551 7.65142 15.6029 7.634C15.5502 7.61643 15.5216 7.58176 15.4984 7.54693L13.0952 4.34271V3.29785H14.2794L16.6129 6.64139C16.6709 6.72266 16.7 6.80392 16.7 6.88519C16.7 6.96646 16.6942 7.07656 16.6651 7.19865C16.6361 7.32073 16.6129 7.43664 16.6129 7.56434C16.6129 7.70366 16.6299 7.80203 16.6826 7.84297C16.7352 7.88391 16.9542 7.90941 16.996 7.91263L17.0036 7.91322C17.0431 7.91627 17.0841 7.91944 17.1353 7.91944C17.1899 7.91944 17.2328 7.91585 17.2746 7.91263C17.3165 7.90941 17.5355 7.88391 17.5881 7.84297C17.6407 7.80203 17.6577 7.70366 17.6577 7.56434C17.6577 7.43664 17.6346 7.32073 17.6055 7.19865C17.5764 7.07656 17.5707 6.96646 17.5707 6.88519C17.5707 6.80392 17.5997 6.72266 17.6577 6.64139L19.9913 3.29785H21.1754V4.34271L18.7723 7.54693C18.749 7.58176 18.7205 7.61643 18.6678 7.634C18.6155 7.65142 18.5585 7.65142 18.5123 7.65142H18.511H18.3369C18.2614 7.65142 18.2441 7.65142 18.1697 7.66883C18.0954 7.68624 18.0307 7.72075 17.9782 7.77332Z" fill="#F9BD29"/>
<path d="M22.1392 3.29895V4.80354H29.0509C29.4036 4.80354 29.0052 5.35261 28.6278 5.55584C28.2503 5.75907 27.5228 5.01514 26.9821 5.60286C26.4414 6.19057 24.7627 8.00079 24.7627 8.00079L22.1157 10.8219V11.198V12.7026H29.4036V11.198H22.4919C22.1392 11.198 22.5376 10.649 22.915 10.4457C23.2925 10.2425 24.02 10.9864 24.5607 10.3987C25.1014 9.81101 26.7845 8.00079 26.7845 8.00079L29.4271 5.17969V4.80354V3.29895H22.1392Z" fill="#F9BD29"/>
</svg>
